<svg xmlns="http://www.w3.org/2000/svg" viewBox="0 0 400 120" preserveAspectRatio="xMidYMid meet">
  <svg x="20" y="20" width="360" height="80" viewBox="0 0 3000 500.08838" preserveAspectRatio="xMidYMid meet">
<style
   type="text/css"
   id="style4">
<![CDATA[
	.st0{fill:#1D1D1B;}
]]>
</style>
<path
   d="M 248.17768,20 C 123.14728,20 20,115.63482 20,250.04419 c 0,134.40092 103.14728,230.0442 228.17768,230.0442 85.64549,0 161.28868,-46.23123 200.04777,-117.50804 l -77.51831,-44.38348 c -22.50445,46.25212 -68.14157,74.37991 -122.52946,74.37991 -78.144,0 -137.52768,-58.13876 -137.52768,-142.53259 0,-84.39383 59.38368,-142.53259 137.52768,-142.53259 54.38789,0 100.02501,28.13586 122.52946,74.39643 l 77.51831,-44.38348 C 409.46636,66.26466 333.82317,20 248.17768,20 Z m 309.42901,11.24866 0,437.57454 87.52813,0 0,-187.52723 218.79553,0 0,187.54376 87.51162,0 0,-437.59107 -87.51162,0 0,162.53571 -218.79553,0 0,-162.53571 -87.52813,0 z m 675.15091,0 -193.804,437.59107 95.6549,0 43.1281,-100.01563 228.7889,0 43.1446,100.01563 95.6384,0 -193.771,-437.59107 -118.7799,0 z m 400.079,0 0,437.59107 81.2513,0 0,-344.44688 234.438,344.44688 78.146,0 0,-437.59107 -81.2678,0 0,290.07008 -196.9095,-290.07008 -115.658,0 z m 562.5982,0 0,437.59107 325.088,0.0169 0,-81.26786 -243.8202,0 0,-100.01563 200.0478,0 0,-81.28437 -200.0478,0 0,-93.77188 231.2996,0 0,-81.26785 -312.5674,0 z m 465.7375,0 0,437.59107 0,0.0169 318.8277,0 0,-87.51161 -231.2996,0 0,-350.09598 -87.5281,0 z m -1369.033,71.88571 79.4014,184.42188 -158.8028,0 79.4014,-184.42188 z"
   id="path6" />
</svg>
</svg>
