<svg xmlns="http://www.w3.org/2000/svg" xmlns:xlink="http://www.w3.org/1999/xlink" width="4000" zoomAndPan="magnify" viewBox="0 0 3000 2999.999989" height="4000" preserveAspectRatio="xMidYMid meet" version="1.0"><defs><g/><clipPath id="197b4c49e4"><rect x="0" width="2373" y="0" height="812"/></clipPath></defs><g transform="matrix(1, 0, 0, 1, 336, 959)"><g clip-path="url(#197b4c49e4)"><g fill="#000000" fill-opacity="1"><g transform="translate(2.53492, 643.442542)"><g><path d="M 187.421875 0 L 2 -465.234375 L 86.40625 -465.234375 L 229.953125 -87.0625 L 374.84375 -465.234375 L 456.59375 -465.234375 L 268.515625 0 Z M 187.421875 0 "/></g></g></g><g fill="#bd3f23" fill-opacity="1"><g transform="translate(473.104125, 643.442542)"><g><path d="M 402.09375 -198.71875 L 402.09375 -70.453125 L 663.953125 -70.453125 L 663.953125 0 L 324.34375 0 L 324.34375 -114.984375 L 147.546875 -114.984375 L 82.40625 0 L 0.671875 0 L 270.5 -465.234375 L 655.984375 -465.234375 L 655.984375 -394.78125 L 402.09375 -394.78125 L 402.09375 -268.515625 L 630.0625 -268.515625 L 630.0625 -198.71875 Z M 308.390625 -400.109375 L 182.109375 -176.125 L 324.34375 -176.125 L 324.34375 -400.109375 Z M 308.390625 -400.109375 "/></g></g></g><g fill="#000000" fill-opacity="1"><g transform="translate(1216.150196, 643.442542)"><g><path d="M 269.171875 -470.546875 C 314.804688 -470.546875 356.453125 -460.132812 394.109375 -439.3125 C 431.773438 -418.488281 461.460938 -389.910156 483.171875 -353.578125 C 504.890625 -317.242188 515.75 -277.144531 515.75 -233.28125 C 515.75 -188.976562 504.890625 -148.660156 483.171875 -112.328125 C 461.460938 -75.992188 431.773438 -47.191406 394.109375 -25.921875 C 356.453125 -4.648438 314.804688 5.984375 269.171875 5.984375 C 223.535156 5.984375 181.882812 -4.648438 144.21875 -25.921875 C 106.5625 -47.191406 76.875 -75.992188 55.15625 -112.328125 C 33.445312 -148.660156 22.59375 -188.976562 22.59375 -233.28125 C 22.59375 -277.144531 33.445312 -317.242188 55.15625 -353.578125 C 76.875 -389.910156 106.5625 -418.488281 144.21875 -439.3125 C 181.882812 -460.132812 223.535156 -470.546875 269.171875 -470.546875 Z M 269.84375 -399.4375 C 239.707031 -399.4375 211.789062 -392.015625 186.09375 -377.171875 C 160.394531 -362.328125 140.015625 -342.273438 124.953125 -317.015625 C 109.890625 -291.765625 102.359375 -263.851562 102.359375 -233.28125 C 102.359375 -202.707031 110 -174.570312 125.28125 -148.875 C 140.570312 -123.175781 160.953125 -102.796875 186.421875 -87.734375 C 211.898438 -72.671875 239.707031 -65.140625 269.84375 -65.140625 C 299.96875 -65.140625 327.65625 -72.671875 352.90625 -87.734375 C 378.164062 -102.796875 398.21875 -123.175781 413.0625 -148.875 C 427.90625 -174.570312 435.328125 -202.707031 435.328125 -233.28125 C 435.328125 -263.851562 427.90625 -291.765625 413.0625 -317.015625 C 398.21875 -342.273438 378.164062 -362.328125 352.90625 -377.171875 C 327.65625 -392.015625 299.96875 -399.4375 269.84375 -399.4375 Z M 269.84375 -399.4375 "/></g></g></g><g fill="#000000" fill-opacity="1"><g transform="translate(1799.013017, 643.442542)"><g><path d="M 387.46875 -128.9375 L 387.46875 -465.234375 L 464.578125 -465.234375 L 464.578125 0 L 387.46875 0 L 139.578125 -334.96875 L 139.578125 0 L 61.140625 0 L 61.140625 -465.234375 L 138.234375 -465.234375 Z M 387.46875 -128.9375 "/></g></g></g></g></g><g fill="#000000" fill-opacity="1"><g transform="translate(425.422888, 1866.238839)"><g><path d="M 56.328125 1.75 C 48.003906 1.75 40.367188 -0.289062 33.421875 -4.375 C 26.484375 -8.46875 20.96875 -13.984375 16.875 -20.921875 C 12.78125 -27.867188 10.734375 -35.507812 10.734375 -43.84375 C 10.734375 -52.3125 12.78125 -59.976562 16.875 -66.84375 C 20.96875 -73.71875 26.484375 -79.203125 33.421875 -83.296875 C 40.367188 -87.390625 48.003906 -89.4375 56.328125 -89.4375 C 66.265625 -89.4375 75.140625 -86.546875 82.953125 -80.765625 C 90.773438 -74.992188 96.222656 -67.65625 99.296875 -58.75 L 88.5625 -58.75 C 85.78125 -64.882812 81.46875 -69.8125 75.625 -73.53125 C 69.78125 -77.257812 63.347656 -79.125 56.328125 -79.125 C 49.898438 -79.125 43.984375 -77.550781 38.578125 -74.40625 C 33.171875 -71.269531 28.859375 -67.070312 25.640625 -61.8125 C 22.429688 -56.550781 20.828125 -50.5625 20.828125 -43.84375 C 20.828125 -37.257812 22.429688 -31.300781 25.640625 -25.96875 C 28.859375 -20.632812 33.171875 -16.394531 38.578125 -13.25 C 43.984375 -10.113281 49.898438 -8.546875 56.328125 -8.546875 C 63.347656 -8.546875 69.78125 -10.410156 75.625 -14.140625 C 81.46875 -17.867188 85.78125 -22.800781 88.5625 -28.9375 L 99.296875 -28.9375 C 96.222656 -20.019531 90.773438 -12.675781 82.953125 -6.90625 C 75.140625 -1.132812 66.265625 1.75 56.328125 1.75 Z M 56.328125 1.75 "/></g></g></g><g fill="#000000" fill-opacity="1"><g transform="translate(594.386053, 1866.238839)"><g><path d="M 56.984375 -89.4375 C 59.617188 -89.4375 62.03125 -89.21875 64.21875 -88.78125 L 64.21875 -78.25 C 63.195312 -78.539062 62.066406 -78.757812 60.828125 -78.90625 C 59.585938 -79.050781 58.304688 -79.125 56.984375 -79.125 C 51.578125 -79.125 46.609375 -77.84375 42.078125 -75.28125 C 37.554688 -72.726562 33.976562 -69.296875 31.34375 -64.984375 C 28.71875 -60.679688 27.40625 -55.753906 27.40625 -50.203125 L 27.40625 0 L 17.09375 0 L 17.09375 -87.671875 L 27.40625 -87.671875 L 27.40625 -74.09375 C 30.613281 -78.769531 34.773438 -82.492188 39.890625 -85.265625 C 45.003906 -88.046875 50.703125 -89.4375 56.984375 -89.4375 Z M 56.984375 -89.4375 "/></g></g></g><g fill="#000000" fill-opacity="1"><g transform="translate(722.578155, 1866.238839)"><g><path d="M 101.703125 -45.15625 L 101.703125 -42.75 L 20.828125 -42.75 C 20.972656 -36.457031 22.648438 -30.71875 25.859375 -25.53125 C 29.078125 -20.34375 33.351562 -16.210938 38.6875 -13.140625 C 44.019531 -10.078125 49.898438 -8.546875 56.328125 -8.546875 C 63.785156 -8.546875 70.472656 -10.59375 76.390625 -14.6875 C 82.304688 -18.78125 86.582031 -24.113281 89.21875 -30.6875 L 99.953125 -30.6875 C 97.179688 -21.332031 91.8125 -13.585938 83.84375 -7.453125 C 75.875 -1.316406 66.703125 1.75 56.328125 1.75 C 48.003906 1.75 40.367188 -0.289062 33.421875 -4.375 C 26.484375 -8.46875 20.96875 -13.984375 16.875 -20.921875 C 12.78125 -27.867188 10.734375 -35.507812 10.734375 -43.84375 C 10.734375 -52.3125 12.78125 -59.976562 16.875 -66.84375 C 20.96875 -73.71875 26.484375 -79.203125 33.421875 -83.296875 C 40.367188 -87.390625 48.003906 -89.4375 56.328125 -89.4375 C 64.660156 -89.4375 72.1875 -87.5 78.90625 -83.625 C 85.632812 -79.75 91.039062 -74.453125 95.125 -67.734375 C 99.21875 -61.015625 101.410156 -53.488281 101.703125 -45.15625 Z M 56.328125 -79.125 C 47.859375 -79.125 40.476562 -76.601562 34.1875 -71.5625 C 27.90625 -66.519531 23.816406 -60.054688 21.921875 -52.171875 L 90.53125 -52.171875 C 88.625 -59.910156 84.492188 -66.335938 78.140625 -71.453125 C 71.785156 -76.566406 64.515625 -79.125 56.328125 -79.125 Z M 56.328125 -79.125 "/></g></g></g><g fill="#000000" fill-opacity="1"><g transform="translate(896.582909, 1866.238839)"><g><path d="M 111.359375 -8.328125 L 117.265625 -8.328125 L 117.265625 0 C 115.367188 1.164062 113.179688 1.75 110.703125 1.75 C 105.429688 1.75 101.148438 0.144531 97.859375 -3.0625 C 94.578125 -6.28125 92.570312 -10.519531 91.84375 -15.78125 C 87.75 -10.375 82.632812 -6.097656 76.5 -2.953125 C 70.363281 0.179688 63.640625 1.75 56.328125 1.75 C 48.003906 1.75 40.367188 -0.289062 33.421875 -4.375 C 26.484375 -8.46875 20.96875 -13.984375 16.875 -20.921875 C 12.78125 -27.867188 10.734375 -35.507812 10.734375 -43.84375 C 10.734375 -52.3125 12.78125 -59.976562 16.875 -66.84375 C 20.96875 -73.71875 26.484375 -79.203125 33.421875 -83.296875 C 40.367188 -87.390625 48.003906 -89.4375 56.328125 -89.4375 C 63.492188 -89.4375 70.144531 -87.898438 76.28125 -84.828125 C 82.414062 -81.765625 87.53125 -77.675781 91.625 -72.5625 L 91.625 -87.671875 L 101.921875 -87.671875 L 101.921875 -20.390625 C 101.921875 -16.296875 102.796875 -13.257812 104.546875 -11.28125 C 106.304688 -9.3125 108.578125 -8.328125 111.359375 -8.328125 Z M 56.328125 -8.546875 C 62.910156 -8.546875 68.867188 -10.113281 74.203125 -13.25 C 79.535156 -16.394531 83.769531 -20.632812 86.90625 -25.96875 C 90.050781 -31.300781 91.625 -37.257812 91.625 -43.84375 C 91.625 -50.414062 90.050781 -56.367188 86.90625 -61.703125 C 83.769531 -67.035156 79.535156 -71.269531 74.203125 -74.40625 C 68.867188 -77.550781 62.910156 -79.125 56.328125 -79.125 C 49.753906 -79.125 43.800781 -77.550781 38.46875 -74.40625 C 33.132812 -71.269531 28.859375 -67.035156 25.640625 -61.703125 C 22.429688 -56.367188 20.828125 -50.414062 20.828125 -43.84375 C 20.828125 -37.257812 22.429688 -31.300781 25.640625 -25.96875 C 28.859375 -20.632812 33.132812 -16.394531 38.46875 -13.25 C 43.800781 -10.113281 49.753906 -8.546875 56.328125 -8.546875 Z M 56.328125 -8.546875 "/></g></g></g><g fill="#000000" fill-opacity="1"><g transform="translate(1078.698044, 1866.238839)"><g><path d="M 54.796875 -77.59375 L 30.6875 -77.59375 L 30.6875 -22.359375 C 30.6875 -18.265625 32.070312 -14.898438 34.84375 -12.265625 C 37.625 -9.640625 40.914062 -8.328125 44.71875 -8.328125 L 54.578125 -8.328125 L 54.578125 -1.09375 C 53.410156 -0.363281 51.800781 0.289062 49.75 0.875 C 47.707031 1.457031 45.664062 1.75 43.625 1.75 C 37.332031 1.75 31.882812 -0.476562 27.28125 -4.9375 C 22.6875 -9.394531 20.390625 -14.765625 20.390625 -21.046875 L 20.390625 -77.59375 L 5.703125 -77.59375 L 5.703125 -87.671875 L 20.390625 -87.671875 L 20.390625 -125.828125 L 30.6875 -125.828125 L 30.6875 -87.671875 L 54.796875 -87.671875 Z M 54.796875 -77.59375 "/></g></g></g><g fill="#000000" fill-opacity="1"><g transform="translate(1204.040506, 1866.238839)"><g><path d="M 24.109375 -104.5625 C 21.921875 -104.5625 20.019531 -105.328125 18.40625 -106.859375 C 16.800781 -108.390625 16 -110.253906 16 -112.453125 C 16 -114.785156 16.800781 -116.71875 18.40625 -118.25 C 20.019531 -119.789062 21.921875 -120.5625 24.109375 -120.5625 C 26.304688 -120.5625 28.207031 -119.789062 29.8125 -118.25 C 31.414062 -116.71875 32.21875 -114.785156 32.21875 -112.453125 C 32.21875 -110.253906 31.414062 -108.390625 29.8125 -106.859375 C 28.207031 -105.328125 26.304688 -104.5625 24.109375 -104.5625 Z M 19.078125 0 L 19.078125 -87.671875 L 29.15625 -87.671875 L 29.15625 0 Z M 19.078125 0 "/></g></g></g><g fill="#000000" fill-opacity="1"><g transform="translate(1314.696721, 1866.238839)"><g><path d="M 72.5625 -87.671875 L 83.296875 -87.671875 L 48.21875 0 L 38.140625 0 L 3.0625 -87.671875 L 14.03125 -87.671875 L 43.1875 -12.28125 Z M 72.5625 -87.671875 "/></g></g></g><g fill="#000000" fill-opacity="1"><g transform="translate(1463.493526, 1866.238839)"><g><path d="M 101.703125 -45.15625 L 101.703125 -42.75 L 20.828125 -42.75 C 20.972656 -36.457031 22.648438 -30.71875 25.859375 -25.53125 C 29.078125 -20.34375 33.351562 -16.210938 38.6875 -13.140625 C 44.019531 -10.078125 49.898438 -8.546875 56.328125 -8.546875 C 63.785156 -8.546875 70.472656 -10.59375 76.390625 -14.6875 C 82.304688 -18.78125 86.582031 -24.113281 89.21875 -30.6875 L 99.953125 -30.6875 C 97.179688 -21.332031 91.8125 -13.585938 83.84375 -7.453125 C 75.875 -1.316406 66.703125 1.75 56.328125 1.75 C 48.003906 1.75 40.367188 -0.289062 33.421875 -4.375 C 26.484375 -8.46875 20.96875 -13.984375 16.875 -20.921875 C 12.78125 -27.867188 10.734375 -35.507812 10.734375 -43.84375 C 10.734375 -52.3125 12.78125 -59.976562 16.875 -66.84375 C 20.96875 -73.71875 26.484375 -79.203125 33.421875 -83.296875 C 40.367188 -87.390625 48.003906 -89.4375 56.328125 -89.4375 C 64.660156 -89.4375 72.1875 -87.5 78.90625 -83.625 C 85.632812 -79.75 91.039062 -74.453125 95.125 -67.734375 C 99.21875 -61.015625 101.410156 -53.488281 101.703125 -45.15625 Z M 56.328125 -79.125 C 47.859375 -79.125 40.476562 -76.601562 34.1875 -71.5625 C 27.90625 -66.519531 23.816406 -60.054688 21.921875 -52.171875 L 90.53125 -52.171875 C 88.625 -59.910156 84.492188 -66.335938 78.140625 -71.453125 C 71.785156 -76.566406 64.515625 -79.125 56.328125 -79.125 Z M 56.328125 -79.125 "/></g></g></g><g fill="#000000" fill-opacity="1"><g transform="translate(1637.498281, 1866.238839)"><g/></g></g><g fill="#000000" fill-opacity="1"><g transform="translate(1753.853653, 1866.238839)"><g><path d="M 38.140625 1.75 C 31.421875 1.75 25.207031 -0.0351562 19.5 -3.609375 C 13.800781 -7.191406 10.078125 -11.539062 8.328125 -16.65625 L 18.1875 -20.609375 C 19.070312 -17.097656 21.484375 -14.171875 25.421875 -11.828125 C 29.367188 -9.492188 33.609375 -8.328125 38.140625 -8.328125 C 42.671875 -8.328125 46.613281 -9.601562 49.96875 -12.15625 C 53.332031 -14.71875 55.015625 -18.265625 55.015625 -22.796875 C 55.015625 -27.179688 53.332031 -30.503906 49.96875 -32.765625 C 46.613281 -35.035156 42.304688 -37.191406 37.046875 -39.234375 C 29.878906 -42.015625 23.992188 -45.265625 19.390625 -48.984375 C 14.796875 -52.710938 12.5 -58.160156 12.5 -65.328125 C 12.5 -70.734375 13.738281 -75.1875 16.21875 -78.6875 C 18.707031 -82.195312 21.847656 -84.863281 25.640625 -86.6875 C 29.441406 -88.519531 33.316406 -89.4375 37.265625 -89.4375 C 42.523438 -89.4375 47.421875 -88.117188 51.953125 -85.484375 C 56.484375 -82.859375 59.625 -79.789062 61.375 -76.28125 L 52.609375 -71.453125 C 51.148438 -74.085938 49.066406 -76.023438 46.359375 -77.265625 C 43.660156 -78.503906 40.773438 -79.125 37.703125 -79.125 C 33.753906 -79.125 30.28125 -78.066406 27.28125 -75.953125 C 24.289062 -73.835938 22.796875 -70.441406 22.796875 -65.765625 C 22.796875 -61.085938 24.4375 -57.648438 27.71875 -55.453125 C 31.007812 -53.265625 35.359375 -51.070312 40.765625 -48.875 C 44.710938 -47.269531 48.550781 -45.441406 52.28125 -43.390625 C 56.007812 -41.347656 59.113281 -38.679688 61.59375 -35.390625 C 64.082031 -32.109375 65.328125 -27.835938 65.328125 -22.578125 C 65.328125 -15.421875 62.65625 -9.578125 57.3125 -5.046875 C 51.976562 -0.515625 45.585938 1.75 38.140625 1.75 Z M 38.140625 1.75 "/></g></g></g><g fill="#000000" fill-opacity="1"><g transform="translate(1889.498542, 1866.238839)"><g><path d="M 54.796875 -77.59375 L 30.6875 -77.59375 L 30.6875 -22.359375 C 30.6875 -18.265625 32.070312 -14.898438 34.84375 -12.265625 C 37.625 -9.640625 40.914062 -8.328125 44.71875 -8.328125 L 54.578125 -8.328125 L 54.578125 -1.09375 C 53.410156 -0.363281 51.800781 0.289062 49.75 0.875 C 47.707031 1.457031 45.664062 1.75 43.625 1.75 C 37.332031 1.75 31.882812 -0.476562 27.28125 -4.9375 C 22.6875 -9.394531 20.390625 -14.765625 20.390625 -21.046875 L 20.390625 -77.59375 L 5.703125 -77.59375 L 5.703125 -87.671875 L 20.390625 -87.671875 L 20.390625 -125.828125 L 30.6875 -125.828125 L 30.6875 -87.671875 L 54.796875 -87.671875 Z M 54.796875 -77.59375 "/></g></g></g><g fill="#000000" fill-opacity="1"><g transform="translate(2014.841096, 1866.238839)"><g><path d="M 46.25 1.75 C 36.894531 1.75 29.222656 -1.390625 23.234375 -7.671875 C 17.242188 -13.953125 14.25 -21.988281 14.25 -31.78125 L 14.25 -87.671875 L 24.328125 -87.671875 L 24.328125 -32.875 C 24.328125 -25.71875 26.445312 -19.875 30.6875 -15.34375 C 34.925781 -10.8125 40.113281 -8.546875 46.25 -8.546875 C 52.675781 -8.546875 57.972656 -10.8125 62.140625 -15.34375 C 66.304688 -19.875 68.390625 -25.71875 68.390625 -32.875 L 68.390625 -87.671875 L 78.46875 -87.671875 L 78.46875 -31.78125 C 78.46875 -21.988281 75.472656 -13.953125 69.484375 -7.671875 C 63.492188 -1.390625 55.75 1.75 46.25 1.75 Z M 46.25 1.75 "/></g></g></g><g fill="#000000" fill-opacity="1"><g transform="translate(2169.994594, 1866.238839)"><g><path d="M 91.625 -161.328125 L 101.921875 -161.328125 L 101.921875 0 L 91.625 0 L 91.625 -14.90625 C 87.53125 -9.9375 82.414062 -5.914062 76.28125 -2.84375 C 70.144531 0.21875 63.492188 1.75 56.328125 1.75 C 48.003906 1.75 40.367188 -0.289062 33.421875 -4.375 C 26.484375 -8.46875 20.96875 -13.984375 16.875 -20.921875 C 12.78125 -27.867188 10.734375 -35.507812 10.734375 -43.84375 C 10.734375 -52.3125 12.78125 -59.976562 16.875 -66.84375 C 20.96875 -73.71875 26.484375 -79.203125 33.421875 -83.296875 C 40.367188 -87.390625 48.003906 -89.4375 56.328125 -89.4375 C 63.492188 -89.4375 70.144531 -87.9375 76.28125 -84.9375 C 82.414062 -81.945312 87.53125 -77.894531 91.625 -72.78125 Z M 56.328125 -8.546875 C 62.910156 -8.546875 68.867188 -10.113281 74.203125 -13.25 C 79.535156 -16.394531 83.769531 -20.632812 86.90625 -25.96875 C 90.050781 -31.300781 91.625 -37.257812 91.625 -43.84375 C 91.625 -50.414062 90.050781 -56.367188 86.90625 -61.703125 C 83.769531 -67.035156 79.535156 -71.269531 74.203125 -74.40625 C 68.867188 -77.550781 62.910156 -79.125 56.328125 -79.125 C 49.753906 -79.125 43.800781 -77.550781 38.46875 -74.40625 C 33.132812 -71.269531 28.859375 -67.035156 25.640625 -61.703125 C 22.429688 -56.367188 20.828125 -50.414062 20.828125 -43.84375 C 20.828125 -37.257812 22.429688 -31.300781 25.640625 -25.96875 C 28.859375 -20.632812 33.132812 -16.394531 38.46875 -13.25 C 43.800781 -10.113281 49.753906 -8.546875 56.328125 -8.546875 Z M 56.328125 -8.546875 "/></g></g></g><g fill="#000000" fill-opacity="1"><g transform="translate(2351.452106, 1866.238839)"><g><path d="M 24.109375 -104.5625 C 21.921875 -104.5625 20.019531 -105.328125 18.40625 -106.859375 C 16.800781 -108.390625 16 -110.253906 16 -112.453125 C 16 -114.785156 16.800781 -116.71875 18.40625 -118.25 C 20.019531 -119.789062 21.921875 -120.5625 24.109375 -120.5625 C 26.304688 -120.5625 28.207031 -119.789062 29.8125 -118.25 C 31.414062 -116.71875 32.21875 -114.785156 32.21875 -112.453125 C 32.21875 -110.253906 31.414062 -108.390625 29.8125 -106.859375 C 28.207031 -105.328125 26.304688 -104.5625 24.109375 -104.5625 Z M 19.078125 0 L 19.078125 -87.671875 L 29.15625 -87.671875 L 29.15625 0 Z M 19.078125 0 "/></g></g></g><g fill="#000000" fill-opacity="1"><g transform="translate(2462.108412, 1866.238839)"><g><path d="M 56.328125 1.75 C 48.003906 1.75 40.367188 -0.289062 33.421875 -4.375 C 26.484375 -8.46875 20.96875 -13.984375 16.875 -20.921875 C 12.78125 -27.867188 10.734375 -35.507812 10.734375 -43.84375 C 10.734375 -52.3125 12.78125 -59.976562 16.875 -66.84375 C 20.96875 -73.71875 26.484375 -79.203125 33.421875 -83.296875 C 40.367188 -87.390625 48.003906 -89.4375 56.328125 -89.4375 C 64.804688 -89.4375 72.476562 -87.390625 79.34375 -83.296875 C 86.21875 -79.203125 91.695312 -73.71875 95.78125 -66.84375 C 99.875 -59.976562 101.921875 -52.3125 101.921875 -43.84375 C 101.921875 -35.507812 99.875 -27.867188 95.78125 -20.921875 C 91.695312 -13.984375 86.21875 -8.46875 79.34375 -4.375 C 72.476562 -0.289062 64.804688 1.75 56.328125 1.75 Z M 56.328125 -8.546875 C 62.910156 -8.546875 68.867188 -10.113281 74.203125 -13.25 C 79.535156 -16.394531 83.769531 -20.632812 86.90625 -25.96875 C 90.050781 -31.300781 91.625 -37.257812 91.625 -43.84375 C 91.625 -50.414062 90.050781 -56.367188 86.90625 -61.703125 C 83.769531 -67.035156 79.535156 -71.269531 74.203125 -74.40625 C 68.867188 -77.550781 62.910156 -79.125 56.328125 -79.125 C 49.753906 -79.125 43.800781 -77.550781 38.46875 -74.40625 C 33.132812 -71.269531 28.859375 -67.035156 25.640625 -61.703125 C 22.429688 -56.367188 20.828125 -50.414062 20.828125 -43.84375 C 20.828125 -37.257812 22.429688 -31.300781 25.640625 -25.96875 C 28.859375 -20.632812 33.132812 -16.394531 38.46875 -13.25 C 43.800781 -10.113281 49.753906 -8.546875 56.328125 -8.546875 Z M 56.328125 -8.546875 "/></g></g></g></svg>